<svg width="24" height="24" viewBox="0 0 24 24" fill="none" xmlns="http://www.w3.org/2000/svg">
<path d="M12.2813 5.56135C12.4614 5.38138 12.7055 5.28027 12.9601 5.28027C13.2146 5.28027 13.4588 5.38138 13.6388 5.56135L19.3988 11.3213C19.5788 11.5014 19.6799 11.7455 19.6799 12.0001C19.6799 12.2546 19.5788 12.4988 19.3988 12.6788L13.6388 18.4388C13.4577 18.6137 13.2152 18.7104 12.9635 18.7082C12.7118 18.706 12.471 18.6051 12.293 18.4271C12.1151 18.2491 12.0141 18.0083 12.0119 17.7566C12.0097 17.5049 12.1065 17.2624 12.2813 17.0813L16.4026 12.9601H5.28007C5.02546 12.9601 4.78128 12.8589 4.60125 12.6789C4.42121 12.4989 4.32007 12.2547 4.32007 12.0001C4.32007 11.7455 4.42121 11.5013 4.60125 11.3212C4.78128 11.1412 5.02546 11.0401 5.28007 11.0401H16.4026L12.2813 6.91879C12.1014 6.73876 12.0003 6.49463 12.0003 6.24007C12.0003 5.98551 12.1014 5.74138 12.2813 5.56135Z" fill="#15727A"/>
</svg>
