<svg width="20" height="20" viewBox="0 0 20 20" fill="none" xmlns="http://www.w3.org/2000/svg">
<g clip-path="url(#clip0_79_4068)">
<path fill-rule="evenodd" clip-rule="evenodd" d="M6.66683 1.66683C6.66683 1.44582 6.75463 1.23385 6.91091 1.07757C7.06719 0.921293 7.27915 0.833496 7.50016 0.833496C7.72118 0.833496 7.93314 0.921293 8.08942 1.07757C8.2457 1.23385 8.3335 1.44582 8.3335 1.66683V3.3335C8.3335 3.55451 8.2457 3.76647 8.08942 3.92275C7.93314 4.07903 7.72118 4.16683 7.50016 4.16683C7.27915 4.16683 7.06719 4.07903 6.91091 3.92275C6.75463 3.76647 6.66683 3.55451 6.66683 3.3335V1.66683ZM1.911 3.08933C1.7592 2.93216 1.6752 2.72166 1.6771 2.50316C1.679 2.28466 1.76664 2.07565 1.92115 1.92115C2.07565 1.76664 2.28466 1.679 2.50316 1.6771C2.72166 1.6752 2.93216 1.7592 3.08933 1.911L5.58933 4.411C5.74113 4.56816 5.82512 4.77867 5.82323 4.99716C5.82133 5.21566 5.73369 5.42467 5.57918 5.57918C5.42467 5.73368 5.21566 5.82133 4.99716 5.82322C4.77867 5.82512 4.56816 5.74113 4.411 5.58933L1.911 3.08933ZM11.406 3.561C11.2513 3.41472 11.0464 3.33321 10.8335 3.33321C10.6206 3.33321 10.4157 3.41472 10.261 3.561L4.42933 9.06933L4.42683 9.07183L2.761 10.6443C2.60032 10.7962 2.50654 11.0056 2.50029 11.2266C2.49404 11.4476 2.57583 11.662 2.72766 11.8227C2.8795 11.9833 3.08895 12.0771 3.30993 12.0834C3.53091 12.0896 3.74532 12.0078 3.906 11.856L4.16683 11.6093V17.5002C4.16683 17.9422 4.34242 18.3661 4.65498 18.6787C4.96755 18.9912 5.39147 19.1668 5.8335 19.1668H15.8335C16.2755 19.1668 16.6994 18.9912 17.012 18.6787C17.3246 18.3661 17.5002 17.9422 17.5002 17.5002V11.6093L17.761 11.856C17.8406 11.9312 17.9341 11.99 18.0364 12.029C18.1387 12.068 18.2476 12.0865 18.3571 12.0834C18.4665 12.0803 18.5742 12.0557 18.6741 12.0109C18.774 11.9662 18.8641 11.9022 18.9393 11.8227C19.0145 11.7431 19.0733 11.6495 19.1123 11.5472C19.1513 11.445 19.1698 11.336 19.1667 11.2266C19.1636 11.1172 19.139 11.0094 19.0943 10.9095C19.0495 10.8096 18.9856 10.7195 18.906 10.6443L17.2393 9.071L17.2377 9.06933L11.406 3.561ZM5.8335 17.5002V10.0352L10.8335 5.31266L15.8335 10.0352V17.5002H13.3335V13.3335C13.3335 13.1125 13.2457 12.9005 13.0894 12.7442C12.9331 12.588 12.7212 12.5002 12.5002 12.5002H9.16683C8.94582 12.5002 8.73385 12.588 8.57757 12.7442C8.42129 12.9005 8.3335 13.1125 8.3335 13.3335V17.5002H5.8335ZM11.6668 14.1668V17.5002H10.0002V14.1668H11.6668ZM4.16683 7.50016C4.16683 7.27915 4.07903 7.06719 3.92275 6.91091C3.76647 6.75463 3.55451 6.66683 3.3335 6.66683H1.66683C1.44582 6.66683 1.23385 6.75463 1.07757 6.91091C0.921293 7.06719 0.833496 7.27915 0.833496 7.50016C0.833496 7.72118 0.921293 7.93314 1.07757 8.08942C1.23385 8.2457 1.44582 8.3335 1.66683 8.3335H3.3335C3.55451 8.3335 3.76647 8.2457 3.92275 8.08942C4.07903 7.93314 4.16683 7.72118 4.16683 7.50016Z" fill="white"/>
</g>
<defs>
<clipPath id="clip0_79_4068">
<rect width="20" height="20" fill="white"/>
</clipPath>
</defs>
</svg>
