<svg width="24" height="24" viewBox="0 0 24 24" fill="none" xmlns="http://www.w3.org/2000/svg">
<path fill-rule="evenodd" clip-rule="evenodd" d="M12.617 3.07612C12.7998 3.00041 13.0009 2.98062 13.1949 3.01925C13.389 3.05787 13.5672 3.15318 13.707 3.29312L21.707 11.2931C21.8945 11.4806 21.9998 11.735 21.9998 12.0001C21.9998 12.2653 21.8945 12.5196 21.707 12.7071L13.707 20.7071C13.5672 20.8469 13.389 20.9421 13.1951 20.9807C13.0011 21.0193 12.8001 20.9995 12.6174 20.9238C12.4347 20.8481 12.2785 20.72 12.1686 20.5556C12.0587 20.3912 12.0001 20.1979 12 20.0001V16.0001C7.68302 16.0001 5.74502 17.1941 4.86802 18.1691C4.51548 18.5522 4.25247 19.0089 4.09802 19.5061C4.01202 19.7961 4.00002 20.0131 4.00002 20.0131C3.99917 20.1444 3.97246 20.2743 3.92141 20.3953C3.87037 20.5163 3.79599 20.6261 3.70253 20.7183C3.60907 20.8106 3.49835 20.8835 3.3767 20.933C3.25505 20.9824 3.12484 21.0075 2.99352 21.0066C2.8622 21.0058 2.73233 20.9791 2.61133 20.928C2.49033 20.877 2.38057 20.8026 2.28832 20.7091C2.19606 20.6157 2.12312 20.5049 2.07365 20.3833C2.02419 20.2616 1.99917 20.1314 2.00002 20.0001C2.00002 19.8231 2.00902 19.6461 2.02002 19.4691C2.03802 19.1461 2.07602 18.6911 2.15002 18.1461C2.29802 17.0621 2.59502 15.5991 3.20002 14.1211C3.80302 12.6461 4.73102 11.1111 6.16502 9.94412C7.61502 8.76212 9.52802 8.00012 12 8.00012V4.00012C12 3.80235 12.0586 3.60901 12.1684 3.44454C12.2782 3.28007 12.4343 3.15186 12.617 3.07612ZM4.75702 15.6751C4.84402 15.4111 4.94202 15.1451 5.05102 14.8791C5.57102 13.6051 6.33102 12.3891 7.42902 11.4941C8.50902 10.6141 9.97202 10.0001 12 10.0001H13C13.2652 10.0001 13.5196 9.89476 13.7071 9.70722C13.8947 9.51969 14 9.26533 14 9.00012V6.41412L19.586 12.0001L14 17.5861V15.0001C14 14.7349 13.8947 14.4805 13.7071 14.293C13.5196 14.1055 13.2652 14.0001 13 14.0001H12C8.57002 14.0001 6.27702 14.7001 4.75702 15.6751Z" fill="#222222"/>
</svg>
