<svg width="24" height="24" viewBox="0 0 24 24" fill="none" xmlns="http://www.w3.org/2000/svg">
<path d="M11.707 5.29279C11.8945 5.48031 11.9998 5.73462 11.9998 5.99979C11.9998 6.26495 11.8945 6.51926 11.707 6.70679L7.41403 10.9998H19C19.2652 10.9998 19.5196 11.1051 19.7071 11.2927C19.8947 11.4802 20 11.7346 20 11.9998C20 12.265 19.8947 12.5194 19.7071 12.7069C19.5196 12.8944 19.2652 12.9998 19 12.9998H7.41403L11.707 17.2928C11.8892 17.4814 11.99 17.734 11.9877 17.9962C11.9854 18.2584 11.8803 18.5092 11.6948 18.6946C11.5094 18.88 11.2586 18.9852 10.9964 18.9875C10.7342 18.9897 10.4816 18.8889 10.293 18.7068L4.29303 12.7068C4.10556 12.5193 4.00024 12.265 4.00024 11.9998C4.00024 11.7346 4.10556 11.4803 4.29303 11.2928L10.293 5.29279C10.4806 5.10532 10.7349 5 11 5C11.2652 5 11.5195 5.10532 11.707 5.29279Z" fill="#222222" fill-opacity="0.4"/>
</svg>
