<svg width="20" height="20" viewBox="0 0 20 20" fill="none" xmlns="http://www.w3.org/2000/svg">
<path d="M8.4 3.60006C7.12696 3.60006 5.90606 4.10577 5.00589 5.00595C4.10571 5.90612 3.6 7.12702 3.6 8.40006C3.6 9.6731 4.10571 10.894 5.00589 11.7942C5.90606 12.6943 7.12696 13.2001 8.4 13.2001C9.67304 13.2001 10.8939 12.6943 11.7941 11.7942C12.6943 10.894 13.2 9.6731 13.2 8.40006C13.2 7.12702 12.6943 5.90612 11.7941 5.00595C10.8939 4.10577 9.67304 3.60006 8.4 3.60006ZM2 8.40006C2.00015 7.38155 2.24337 6.37778 2.70947 5.47217C3.17557 4.56657 3.85107 3.78528 4.67984 3.19325C5.50862 2.60121 6.46672 2.21553 7.47452 2.06825C8.48233 1.92096 9.51074 2.01634 10.4743 2.34644C11.4378 2.67655 12.3086 3.23185 13.0144 3.9662C13.7202 4.70054 14.2405 5.59273 14.5321 6.5686C14.8237 7.54448 14.8782 8.57586 14.691 9.57703C14.5039 10.5782 14.0805 11.5202 13.456 12.3249L17.7656 16.6345C17.9113 16.7853 17.992 16.9874 17.9901 17.1972C17.9883 17.4069 17.9042 17.6076 17.7559 17.7559C17.6075 17.9042 17.4069 17.9884 17.1971 17.9902C16.9874 17.992 16.7853 17.9114 16.6344 17.7657L12.3248 13.4561C11.3788 14.1905 10.2456 14.6448 9.05421 14.7672C7.86281 14.8897 6.66095 14.6753 5.58532 14.1486C4.50968 13.6219 3.60343 12.8039 2.96962 11.7877C2.33581 10.7714 1.99987 9.59774 2 8.40006Z" fill="white"/>
</svg>
