<svg width="24" height="24" viewBox="0 0 24 24" fill="none" xmlns="http://www.w3.org/2000/svg">
<path fill-rule="evenodd" clip-rule="evenodd" d="M3.35402 4.844C4.30602 3.69 5.72002 3 7.50002 3C9.07202 3 10.413 3.777 11.297 4.457C11.564 4.662 11.8 4.867 12 5.054C12.2 4.867 12.436 4.662 12.703 4.457C13.587 3.777 14.928 3 16.5 3C18.28 3 19.694 3.689 20.646 4.844C21.577 5.974 22 7.468 22 9C22 10.205 21.58 11.394 20.981 12.488C20.38 13.588 19.565 14.65 18.698 15.619C16.963 17.556 14.932 19.209 13.708 20.141C13.2174 20.5161 12.6171 20.7193 11.9995 20.7193C11.382 20.7193 10.7816 20.5161 10.291 20.141C9.06802 19.21 7.03702 17.556 5.30202 15.619C4.43402 14.65 3.62002 13.587 3.01902 12.488C2.42002 11.394 1.99902 10.205 1.99902 9.001C2.00102 7.469 2.42202 5.975 3.35402 4.844ZM11.155 7.05C10.8278 6.68152 10.4669 6.34439 10.077 6.043C9.33802 5.473 8.42802 5 7.50002 5C6.27902 5 5.44502 5.451 4.89702 6.116C4.33002 6.806 4.00102 7.813 4.00002 9C4.00002 9.75 4.26602 10.6 4.77302 11.527C5.27702 12.447 5.98602 13.384 6.79202 14.284C8.40502 16.084 10.322 17.65 11.502 18.548C11.6445 18.6584 11.8197 18.7184 12 18.7184C12.1803 18.7184 12.3555 18.6584 12.498 18.548C13.678 17.65 15.595 16.085 17.208 14.284C18.014 13.384 18.723 12.447 19.227 11.527C19.733 10.601 20 9.749 20 9.001C20 7.813 19.67 6.806 19.102 6.116C18.555 5.451 17.723 5 16.5 5C15.572 5 14.663 5.473 13.922 6.043C13.5324 6.34438 13.1719 6.68152 12.845 7.05C12.55 7.388 12.28 7.75 12 8.1C11.72 7.75 11.45 7.388 11.155 7.05Z" fill="#222222"/>
</svg>
